<?xml version="1.0" encoding="UTF-8" standalone="no"?>
<svg
   xmlns:dc="http://purl.org/dc/elements/1.1/"
   xmlns:cc="http://creativecommons.org/ns#"
   xmlns:rdf="http://www.w3.org/1999/02/22-rdf-syntax-ns#"
   xmlns:svg="http://www.w3.org/2000/svg"
   xmlns="http://www.w3.org/2000/svg"
   width="132.07765"
   height="36.693302"
   viewBox="0 0 34.945545 9.7084364"
   version="1.1"
   id="svg8">
  <path
     id="path1884"
     style="clip-rule:nonzero;fill:#cf072b;fill-opacity:1;fill-rule:evenodd;stroke:none;stroke-width:0.352778"
     d="m 16.985299,6.3550356 c 0.150205,0.932935 -0.427193,1.5516719 -1.204408,1.7046364 0.372071,0.7661874 0.77308,1.5806067 0.77308,1.5806067 H 14.843825 L 14.135514,8.1230591 13.71659,9.6402787 h -1.591634 l 1.256771,-4.4042083 h 2.056034 c 1.178222,0 1.466233,0.6118472 1.547538,1.1189652 m -1.576476,0.07855 h -0.766191 l -0.202572,0.756542 h 0.875055 c 0.472669,0.00413 0.54157,-0.760677 0.09371,-0.7565425 M 13.777226,1.146053 c 0.150205,0.9329314 -0.427193,1.5530477 -1.204408,1.7060121 0.372071,0.7648117 0.77308,1.5806103 0.77308,1.5806103 H 11.635753 L 10.927441,2.9154523 10.508518,4.4326754 H 8.9182618 L 10.173655,0.02846355 h 2.056033 c 1.178222,0 1.466233,0.61185072 1.547538,1.11758945 M 12.20075,1.225978 h -0.766191 l -0.202571,0.7565425 h 0.875054 c 0.472669,0.00282 0.542946,-0.7606771 0.09371,-0.7565425 M 7.7097224,5.2374497 7.8447699,7.3086398 8.8217989,5.2374497 h 1.5806101 l 0.06063,2.0711901 0.957736,-2.0711901 H 13.14884 L 10.779991,9.6430374 H 9.1332358 L 9.0643337,7.5677092 8.0046224,9.6430374 H 6.5204753 L 6.1869899,5.2374497 Z m 0,0 M 22.934289,1.2273577 c -0.13505,0 -0.209462,0.1033533 -0.213596,0.2080824 -0.0041,0.1047327 0.09095,0.2094618 0.210837,0.2094618 h 1.49104 c 0.584289,0 1.142394,0.7096901 1.047309,1.3366962 -0.115757,0.7785947 -0.768946,1.2443707 -1.296733,1.3959558 -0.241159,0.068901 -0.669728,0.055122 -0.785484,0.055122 h -2.594843 l 0.347264,-1.204408 c 0,0 2.647212,-0.00282 2.699575,-0.00282 0.140561,0 0.21911,-0.1074878 0.21911,-0.2094618 0,-0.096463 -0.07442,-0.2108411 -0.209461,-0.2108411 h -1.353235 c -0.928797,0 -1.393197,-0.6545651 -1.287088,-1.3656346 0.118512,-0.78961541 0.830957,-1.39595222 1.608172,-1.41111108 0.06339,-0.0014111 2.706466,0 2.706466,0 L 25.095053,1.2272906 Z m 0,0 m 4.604025,0 c -0.135047,0 -0.208086,0.1033533 -0.212217,0.2080824 -0.0041,0.1047327 0.08957,0.2094618 0.209462,0.2094618 h 1.492412 c 0.582913,0 1.141018,0.7096901 1.047309,1.3366962 -0.115753,0.7785947 -0.768942,1.2443707 -1.296733,1.3959558 -0.242535,0.068901 -0.669724,0.055122 -0.785481,0.055122 H 25.39822 l 0.347267,-1.204408 c 0,0 2.647209,-0.00282 2.699576,-0.00282 0.14056,0 0.219106,-0.1074878 0.219106,-0.2094618 0,-0.096463 -0.07441,-0.2108411 -0.210837,-0.2108411 h -1.351855 c -0.930177,0 -1.393197,-0.6545651 -1.287089,-1.3656346 0.118512,-0.78961541 0.830958,-1.39595222 1.608169,-1.41111108 0.06339,-0.0014111 2.707845,0 2.707845,0 L 29.714237,1.2272906 Z m 0,0 M 28.034408,5.234691 27.586546,6.729862 H 26.045899 L 26.48825,5.234691 H 24.897991 L 23.62882,9.6402787 h 1.602659 l 0.435459,-1.5695824 h 1.537892 l -0.440972,1.5695824 h 1.602655 l 1.25815,-4.4055877 z m 0,0 m -3.570499,0 -0.350019,1.1947596 h -1.965085 c -0.465776,-0.00688 -1.1231,0.4092786 -1.216805,1.11621 -0.09784,0.7289836 0.447862,0.8461164 0.897103,0.8791893 h 0.130913 l 0.332105,-1.1479036 1.593014,0.00141 -0.686263,2.4019228 c 0,0 -1.863107,-0.00413 -1.962326,0 -1.219563,0.045473 -2.014693,-0.8282023 -1.838304,-2.0574142 0.183279,-1.2925989 1.139638,-2.3688463 2.439127,-2.3881397 0.169499,-0.00282 2.62654,0 2.62654,0 M 4.9522677,0.02708418 4.6022461,1.2218437 H 2.8025281 C 2.3367513,1.2149646 1.6780489,1.6311224 1.5843423,2.3380573 1.4865019,3.0684167 2.032205,3.1841701 2.4814453,3.2172431 h 1.5585613 l -0.3527778,1.255395 c 0,0 -1.699121,-0.00413 -1.7983398,0 C 0.66932493,4.5181111 -0.12442507,3.6444358 0.05058587,2.4152275 0.23386486,1.122625 1.1916015,0.0463776 2.4897137,0.02708418 c 0.1694984,-0.0014111 2.462554,0 2.462554,0 m 1.944412,0.0013794 c 0,0 -0.5250325,1.84243835 -0.7854816,2.78088025 -0.055122,0.2039514 0.00689,0.2990356 0.093707,0.3582917 0.271473,0.1143776 0.8282004,0.1061085 1.02526,-0.1364263 L 7.3280055,2.8754896 8.136914,0.02846355 H 9.7147677 L 8.7349828,3.4983646 C 8.3449979,4.4257821 7.5994793,4.4685035 6.6913521,4.4809037 6.4736218,4.4837259 6.3592449,4.4850312 6.0588324,4.4780814 5.3050454,4.4601603 4.7345378,4.5276926 4.4465279,3.7890641 4.3762479,3.6057855 4.3982965,3.3219087 4.4479037,3.1427646 L 5.3408725,0.02839652 Z m 0,0 M 29.995355,5.23469 29.646712,6.42807 h 1.841059 l -0.913638,3.2122 h 1.5875 l 0.917773,-3.2122 h 1.473122 l 0.343133,-1.19338 z m 0,0 M 14.325682,0.02708 13.977039,1.22184 h 1.841059 L 14.90446,4.43267 h 1.586121 l 0.919152,-3.21083 h 1.473122 l 0.343133,-1.19476 z m 0,0 m 3.784096,5.20761 -1.270554,4.40558 h 1.602659 l 1.25815,-4.40558 z m 0,0 M 31.778537,1.67659 31.413356,2.8369 h 3.067516 l 0.438213,-1.16031 z m 0,0 M 19.588411,0.02708 18.31786,4.43267 h 1.602659 L 21.17729,0.02708 Z m 0,0" />
</svg>
