<svg xmlns="http://www.w3.org/2000/svg" width="180" height="85"><path fill="#e3b025" d="M42.2502 48.6515c0 30.222 0 33.567 4.103 34.431v1.621c-2.793-.109-6.635-.109-10.565-.109-4.802 0-8.644 0-10.652.109v-1.726c4.016-.759 4.016-4.104 4.016-34.108v-14.681c0-28.064 0-31.516-3.841-32.165V.2965c1.92 0 5.937.108 10.302.108 3.931 0 7.859-.108 10.304-.108v1.727c-3.667.649-3.667 3.995-3.667 32.165Z"/><path fill="#18468b" d="M19.3196 53.3619v-4.987h7.114v-12.321h-7.114v-4.009c0-22.2 0-25.623 4.108-26.014v-1.467c-2.25 0-6.65.097-11.345.097-4.596 0-9.583-.097-11.735-.097v1.467c4.303.391 4.303 3.814 4.303 29.24v13.104c0 27.383 0 30.806-4.498 31.197v1.468c2.249 0 7.138-.098 11.735-.098 4.597 0 9.29.098 11.932.098v-1.468c-4.5-.391-4.5-3.814-4.5-26.21"/><path fill="#18468b" d="M66.6526 48.3751v-13.104c0-25.427 0-28.85 3.912-29.24v-1.467c-2.152 0-6.65.097-11.052.097-4.4 0-9.289-.097-11.538-.097v1.467c4.009.39 4.009 3.813 4.009 25.916v4.107h-6.988v12.321h6.988v4.987c0 22.396 0 25.819-4.596 26.21v1.468c2.836 0 7.823-.098 12.42-.098 4.401 0 9.095.098 11.539.098v-1.468c-4.694-.391-4.694-3.814-4.694-31.197"/><path fill="#18468b" d="M84.0053 23.7904v5.41h5.708v-5.41h2.466v13.503h-2.466v-5.951h-5.708v5.951h-2.465v-13.503Z"/><path fill="#18468b" d="M103.6448 34.369c0 1.16.039 2.123.08 2.924h-2.144l-.119-1.463h-.06c-.421.682-1.383 1.683-3.147 1.683-1.762 0-3.385-1.062-3.385-4.246v-5.73h2.464v5.31c0 1.621.522 2.663 1.823 2.663 1.003 0 1.644-.681 1.883-1.323.1-.198.141-.479.141-.76v-5.89h2.464Z"/><path fill="#18468b" d="M106.3144 30.4421c0-1.122-.04-2.063-.079-2.905h2.143l.119 1.463h.06c.441-.761 1.503-1.682 3.126-1.682 1.704 0 3.466 1.101 3.466 4.186v5.789h-2.464v-5.508c0-1.404-.52-2.465-1.864-2.465-.982 0-1.663.702-1.923 1.442-.08.201-.12.501-.12.781v5.75h-2.464Z"/><path fill="#18468b" d="M120.5034 25.0338v2.503h2.344v1.844h-2.344v4.307c0 1.201.318 1.803 1.262 1.803.441 0 .682-.021.963-.102l.038 1.864c-.361.14-1.02.261-1.782.261-.922 0-1.662-.3-2.124-.802-.54-.56-.781-1.462-.781-2.744v-4.587h-1.382v-1.844h1.382v-1.823z"/><path fill="#18468b" d="M124.715 27.5377h2.461v9.756h-2.461zm2.623-2.724c0 .721-.54 1.321-1.403 1.321-.821 0-1.36-.6-1.36-1.321 0-.762.56-1.343 1.381-1.343.842 0 1.362.581 1.382 1.343"/><path fill="#18468b" d="M129.8457 30.4421c0-1.122-.042-2.063-.081-2.905h2.144l.12 1.463h.059c.442-.761 1.503-1.682 3.126-1.682 1.701 0 3.465 1.101 3.465 4.186v5.789h-2.463v-5.508c0-1.404-.521-2.465-1.864-2.465-.983 0-1.662.702-1.921 1.442-.083.201-.121.501-.121.781v5.75h-2.464Z"/><path fill="#18468b" d="M147.6794 31.4444c0-.241-.021-.462-.079-.661-.261-.902-.963-1.584-2.005-1.584-1.381 0-2.404 1.202-2.404 3.186 0 1.662.843 3.004 2.386 3.004.919 0 1.722-.6 2.002-1.502.079-.24.1-.58.1-.862zm2.465 4.426c0 2.044-.422 3.506-1.442 4.427-1.002.902-2.423 1.183-3.767 1.183-1.242 0-2.565-.281-3.407-.781l.542-1.863c.621.36 1.664.74 2.844.74 1.604 0 2.807-.841 2.807-2.943v-.843h-.042c-.561.861-1.541 1.443-2.844 1.443-2.424 0-4.147-2.004-4.147-4.768 0-3.206 2.084-5.148 4.426-5.148 1.504 0 2.365.721 2.826 1.521h.04l.098-1.301h2.144c-.039.661-.078 1.463-.078 2.804Z"/><path fill="#18468b" d="M155.6186 25.0338v2.503h2.344v1.844h-2.344v4.307c0 1.201.319 1.803 1.262 1.803.44 0 .682-.021.963-.102l.038 1.864c-.36.14-1.02.261-1.782.261-.922 0-1.662-.3-2.124-.802-.54-.56-.78-1.462-.78-2.744v-4.587h-1.383v-1.844h1.383v-1.823z"/><path fill="#18468b" d="M161.6321 32.4258c0 1.883.941 3.305 2.423 3.305 1.404 0 2.385-1.362 2.385-3.345 0-1.523-.68-3.286-2.362-3.286-1.745 0-2.446 1.703-2.446 3.326m7.353-.101c0 3.587-2.525 5.189-5.008 5.189-2.745 0-4.887-1.882-4.887-5.03 0-3.203 2.103-5.166 5.047-5.166 2.904 0 4.848 2.044 4.848 5.007"/><path fill="#18468b" d="M171.0134 30.4421c0-1.122-.041-2.063-.078-2.905h2.144l.119 1.463h.059c.441-.761 1.502-1.682 3.126-1.682 1.703 0 3.464 1.101 3.464 4.186v5.789h-2.462v-5.508c0-1.404-.523-2.465-1.863-2.465-.982 0-1.664.702-1.924 1.442-.08.201-.12.501-.12.781v5.75h-2.465Z"/><path fill="#18468b" d="M84.005 59.1437H81.54v-13.502h2.465z"/><path fill="#18468b" d="M86.8523 52.2935c0-1.123-.04-2.064-.08-2.905h2.143l.121 1.463h.06c.44-.762 1.502-1.684 3.125-1.684 1.703 0 3.465 1.102 3.465 4.188v5.788h-2.464v-5.508c0-1.403-.52-2.465-1.863-2.465-.982 0-1.662.701-1.922 1.442-.081.201-.122.501-.122.782v5.749h-2.463Z"/><path fill="#18468b" d="M104.688 53.2943c0-.241-.021-.461-.08-.66-.261-.902-.962-1.585-2.003-1.585-1.383 0-2.404 1.204-2.404 3.187 0 1.662.84 3.004 2.383 3.004.921 0 1.723-.601 2.003-1.501.08-.241.101-.582.101-.862Zm2.463 4.428c0 2.043-.421 3.504-1.443 4.426-.999.903-2.422 1.183-3.764 1.183-1.242 0-2.566-.28-3.407-.781l.541-1.862c.621.36 1.663.74 2.846.74 1.601 0 2.803-.843 2.803-2.945v-.841h-.039c-.562.861-1.543 1.441-2.845 1.441-2.424 0-4.146-2.003-4.146-4.767 0-3.205 2.082-5.148 4.428-5.148 1.499 0 2.363.721 2.822 1.521h.041l.101-1.301h2.141c-.039.661-.079 1.463-.079 2.804Z"/><path fill="#18468b" d="M114.9699 54.3758c-1.742-.019-3.405.342-3.405 1.825 0 .961.622 1.401 1.402 1.401 1.002 0 1.703-.641 1.945-1.341.058-.181.058-.363.058-.542Zm2.404 2.424c0 .881.04 1.744.161 2.344h-2.224l-.181-1.081h-.058c-.581.762-1.605 1.301-2.885 1.301-1.964 0-3.067-1.421-3.067-2.905 0-2.443 2.183-3.705 5.792-3.685v-.161c0-.641-.261-1.703-1.984-1.703-.962 0-1.964.302-2.625.724l-.481-1.604c.721-.44 1.983-.862 3.527-.862 3.124 0 4.025 1.984 4.025 4.126z"/><path fill="#18468b" d="M119.983 44.9197h2.464v14.223h-2.464z"/><path fill="#18468b" d="M125.135 44.9197h2.465v14.223h-2.465z"/><path fill="#18468b" d="M130.1867 56.861c.541.341 1.603.72 2.485.72 1.079 0 1.562-.46 1.562-1.1 0-.663-.402-.983-1.603-1.423-1.903-.641-2.683-1.683-2.683-2.845 0-1.723 1.421-3.045 3.685-3.045 1.081 0 2.024.261 2.604.581l-.502 1.722c-.4-.239-1.2-.561-2.062-.561-.882 0-1.363.443-1.363 1.043 0 .622.462.901 1.703 1.362 1.784.621 2.583 1.524 2.605 2.965 0 1.783-1.383 3.065-3.967 3.065-1.183 0-2.242-.28-2.964-.683z"/><path fill="#18468b" d="M84.005 80.9947H81.54v-13.503h2.465z"/><path fill="#18468b" d="M86.8523 74.1443c0-1.122-.04-2.063-.08-2.904h2.143l.121 1.463h.06c.44-.763 1.502-1.685 3.125-1.685 1.703 0 3.465 1.101 3.465 4.189v5.788h-2.464v-5.508c0-1.404-.52-2.465-1.863-2.465-.982 0-1.662.701-1.922 1.442-.081.2-.122.501-.122.781v5.75h-2.463Z"/><path fill="#18468b" d="M104.8469 75.3057c0-.201-.019-.46-.06-.66-.22-.942-1.001-1.723-2.124-1.723-1.58 0-2.462 1.401-2.462 3.205 0 1.802.882 3.104 2.444 3.104 1.002 0 1.882-.68 2.122-1.742.061-.22.08-.462.08-.721zm2.465-8.534v11.478c0 1.004.04 2.086.08 2.745h-2.183l-.12-1.542h-.042c-.579 1.083-1.761 1.764-3.165 1.764-2.343 0-4.185-1.985-4.185-4.99-.022-3.265 2.022-5.208 4.366-5.208 1.343 0 2.304.543 2.745 1.263h.039v-5.51z"/><path fill="#18468b" d="M118.6963 78.0712c0 1.161.04 2.123.082 2.924h-2.143l-.122-1.464h-.06c-.419.683-1.382 1.685-3.144 1.685-1.764 0-3.386-1.062-3.386-4.249v-5.727h2.464v5.309c0 1.621.521 2.663 1.823 2.663 1.002 0 1.643-.681 1.882-1.323.102-.198.14-.48.14-.76v-5.889h2.464Z"/><path fill="#18468b" d="M121.2673 78.7117c.54.341 1.6.721 2.484.721 1.08 0 1.562-.46 1.562-1.101 0-.663-.4-.983-1.604-1.423-1.902-.641-2.683-1.683-2.683-2.844 0-1.724 1.422-3.046 3.685-3.046 1.084 0 2.025.261 2.606.581l-.502 1.722c-.401-.24-1.201-.561-2.062-.561-.884 0-1.363.443-1.363 1.043 0 .622.46.901 1.703 1.362 1.782.621 2.583 1.524 2.603 2.965 0 1.783-1.382 3.065-3.965 3.065-1.183 0-2.245-.281-2.966-.683z"/><path fill="#18468b" d="M132.5495 68.7359v2.504h2.343v1.842h-2.343v4.308c0 1.201.321 1.803 1.262 1.803.441 0 .68-.022.961-.102l.041 1.864c-.36.14-1.022.261-1.782.261-.922 0-1.665-.301-2.125-.801-.543-.562-.782-1.464-.782-2.746v-4.587h-1.382v-1.842h1.382v-1.825z"/><path fill="#18468b" d="M136.759 74.3842c0-1.321-.02-2.284-.079-3.144h2.123l.1 1.842h.062c.479-1.362 1.621-2.064 2.683-2.064.239 0 .381.021.582.062v2.302c-.222-.038-.442-.06-.742-.06-1.163 0-1.984.742-2.204 1.863-.039.222-.06.481-.06.742v5.068h-2.465Z"/><path fill="#18468b" d="M143.895 71.2397h2.465v9.755h-2.465zm2.625-2.725c0 .721-.541 1.322-1.403 1.322-.822 0-1.362-.601-1.362-1.322 0-.761.561-1.342 1.382-1.342.842 0 1.363.581 1.383 1.342"/><path fill="#18468b" d="M155.0566 75.086c.02-.903-.381-2.383-2.023-2.383-1.522 0-2.165 1.381-2.264 2.383Zm-4.287 1.722c.06 1.763 1.421 2.525 3.004 2.525 1.141 0 1.943-.18 2.704-.443l.36 1.685c-.841.36-2.001.62-3.405.62-3.165 0-5.026-1.941-5.026-4.927 0-2.704 1.64-5.249 4.767-5.249 3.164 0 4.207 2.604 4.207 4.749 0 .458-.04.819-.081 1.04z"/><path fill="#18468b" d="M159.2693 78.7117c.539.341 1.601.721 2.482.721 1.085 0 1.563-.46 1.563-1.101 0-.663-.4-.983-1.6-1.423-1.906-.641-2.686-1.683-2.686-2.844 0-1.724 1.422-3.046 3.686-3.046 1.082 0 2.023.261 2.604.581l-.5 1.722c-.401-.24-1.204-.561-2.066-.561-.879 0-1.359.443-1.359 1.043 0 .622.46.901 1.703 1.362 1.78.621 2.583 1.524 2.602 2.965 0 1.783-1.384 3.065-3.967 3.065-1.18 0-2.242-.281-2.964-.683z"/></svg>