<?xml version="1.0"?>
<svg xmlns="http://www.w3.org/2000/svg" width="480" height="780" viewBox="0 0 13.520103 21.999609">
  <defs>
    <clipPath
       clipPathUnits="userSpaceOnUse"
       id="clipPath40">
      <path
         d="m 528.604,28.346 h 38.325 v 62.362 h -38.325 z" />
    </clipPath>
  </defs>
  <g transform="translate(-393.89471,-199.82162)">
    <g transform="matrix(0.35277777,0,0,-0.35277777,207.41497,231.82139)">
      <g clip-path="url(#clipPath40)">
        <g transform="translate(528.8915,86.1268)">
          <path
             d="M 0,0 C 0,2.358 1.902,4.27 4.248,4.27 H 33.502 C 35.848,4.27 37.75,2.359 37.75,0 v -53.199 c 0,-2.358 -1.902,-4.269 -4.248,-4.269 H 4.248 c -2.346,0 -4.248,1.912 -4.248,4.27 z"
             style="fill:#FFF;fill-rule:nonzero;stroke:none" />
        </g>
        <g transform="translate(565.7117,86.3959)">
          <path
             d="m 0,0 c 0,1.709 -1.386,3.095 -3.095,3.095 h -29.7 C -34.504,3.095 -35.89,1.709 -35.89,0 v -53.736 c 0,-1.71 1.386,-3.095 3.095,-3.095 l 29.7,-10e-4 c 1.709,0 3.095,1.386 3.095,3.096 z m 1.217,0 v -53.736 c 0,-2.382 -1.931,-4.313 -4.312,-4.313 h -29.7 c -2.382,0 -4.313,1.931 -4.313,4.313 V 0 c 0,2.381 1.931,4.312 4.313,4.312 l 29.7,10e-4 C -0.714,4.313 1.217,2.382 1.217,0 m -36.176,-46.158 h 34.028 v 38.583 h -34.028 z m 0,-7.578 c 0,-1.195 0.969,-2.164 2.164,-2.164 l 29.7,-0.001 c 1.195,0 2.164,0.969 2.164,2.165 v 6.641 H -34.959 Z M -0.931,0 V -6.637 H -34.959 V 0 c 0,1.195 0.969,2.164 2.164,2.164 l 29.7,10e-4 c 1.195,0 2.164,-0.97 2.164,-2.165"
             style="fill:#00109F;fill-rule:nonzero;stroke:none" />
        </g>
        <g transform="translate(559.9268,82.3636)">
          <path
             d="m 0,0 c -0.56,-0.039 -1.111,0.256 -1.535,0.814 l -0.034,0.044 -0.301,-1.073 0.009,-0.011 c 0.334,-0.402 1.029,-0.662 1.771,-0.662 1.085,0 1.843,0.654 1.843,1.59 0,0.569 -0.162,1.199 -1.359,1.553 -0.953,0.284 -1.127,0.504 -1.127,0.836 0,0.366 0.376,0.532 0.725,0.532 0.41,0 0.786,-0.145 1.184,-0.456 L 1.207,3.143 1.488,4.049 1.471,4.06 c -0.434,0.286 -0.907,0.42 -1.487,0.42 -1.056,0 -1.738,-0.568 -1.738,-1.448 0,-0.715 0.49,-1.225 1.456,-1.516 C 0.014,1.423 0.224,1.336 0.363,1.242 0.552,1.115 0.664,0.904 0.664,0.678 0.664,0.311 0.385,0.026 0,0 m -24.989,2.245 h 1.037 c 0.466,0 0.713,0.221 0.713,0.638 0,0.417 -0.247,0.638 -0.713,0.638 h -1.037 z m 0,-3.056 h -1.042 v 5.214 h 2.243 c 0.943,0 1.602,-0.576 1.602,-1.401 0,-0.702 -0.46,-1.042 -0.846,-1.204 l -0.07,-0.03 0.069,-0.031 c 0.213,-0.098 0.36,-0.311 0.46,-0.67 l 0.372,-1.303 c 0.058,-0.198 0.125,-0.344 0.223,-0.489 l 0.058,-0.086 h -1.073 l -0.016,0.018 c -0.098,0.106 -0.192,0.289 -0.252,0.489 l -0.351,1.177 c -0.1,0.338 -0.214,0.489 -0.615,0.489 h -0.762 z m 21.348,0.887 h -2.396 v 4.327 h -1.065 v -5.214 h 3.461 z m -5.534,0 h -2.397 v 4.327 h -1.065 v -5.214 h 3.462 z m -9.957,1.72 c 0,-1.109 0.592,-1.797 1.544,-1.797 0.953,0 1.544,0.688 1.544,1.797 0,1.109 -0.591,1.797 -1.544,1.797 -0.952,0 -1.544,-0.688 -1.544,-1.797 m -1.095,0 c 0,1.58 1.085,2.684 2.639,2.684 1.554,0 2.639,-1.104 2.639,-2.684 0,-1.58 -1.085,-2.684 -2.639,-2.684 -1.554,0 -2.639,1.104 -2.639,2.684 m 10.375,-16.031 c 0,1.908 -0.768,3.505 -2.162,4.496 -1.067,0.754 -2.39,1.119 -4.165,1.149 h -4.992 v -13.024 l 0.249,0.005 c 9.991,0.171 11.07,5.214 11.07,7.374 m -0.176,5.685 c 1.839,-1.255 3.116,-3.482 3.086,-5.651 0,-2.944 -1.658,-5.41 -4.669,-6.945 -0.054,-0.027 -0.103,-0.048 -0.152,-0.069 -0.055,-0.024 -0.111,-0.047 -0.174,-0.079 l -0.284,-0.141 0.209,-0.239 c 1.961,-2.251 3.189,-5.452 3.746,-7.159 0.235,-0.72 0.416,-1.462 0.744,-2.81 l 0.066,-0.271 c 0.443,-1.79 1.473,-2.323 1.992,-2.48 v -0.395 h -5.85 v 0.4 c 0.81,0.261 0.938,0.86 0.96,1.301 l 0.002,0.046 c 10e-4,0.033 0.002,0.067 0.003,0.101 l -10e-4,0.09 c -0.004,0.545 -0.159,2.05 -0.161,2.062 -0.438,3.162 -1.796,6.433 -3.544,8.537 l -0.1,0.12 -0.151,-0.039 c -1.993,-0.522 -4.283,-0.798 -6.62,-0.798 h -0.246 l 0.017,-9.193 c 0,-1.16 0.486,-1.924 1.409,-2.221 v -0.406 h -5.676 v 0.406 c 0.894,0.288 1.356,1.013 1.409,2.211 v 0.011 c 0,0.222 -0.006,22.242 -0.002,22.502 -0.025,1.266 -0.485,1.992 -1.446,2.276 v 0.398 h 9.427 c 2.761,0 4.565,-0.596 6.006,-1.565 m 4.13,-4.877 c 0.139,-0.066 0.349,-0.204 0.454,-0.278 1.394,-0.991 2.162,-2.588 2.162,-4.495 0,-1.645 -0.61,-4.962 -5.477,-6.579 0.312,-0.55 0.533,-1.124 0.66,-1.434 0.115,0.017 0.293,0.057 0.363,0.076 l 0.151,0.04 0.1,-0.12 c 1.748,-2.104 3.106,-5.375 3.545,-8.538 10e-4,-0.011 0.156,-1.516 0.16,-2.061 l 10e-4,-0.09 c -10e-4,-0.035 -0.002,-0.069 -0.003,-0.102 l -10e-4,-0.046 c -0.023,-0.441 -0.15,-1.04 -0.96,-1.3 v -0.4 h 5.85 v 0.395 c -0.519,0.156 -1.55,0.689 -1.992,2.48 l -0.066,0.27 c -0.329,1.348 -0.51,2.091 -0.745,2.81 -0.557,1.708 -1.785,4.908 -3.746,7.159 l -0.208,0.239 0.284,0.141 c 0.063,0.032 0.118,0.056 0.174,0.079 0.048,0.022 0.097,0.042 0.151,0.069 3.011,1.536 4.67,4.001 4.67,6.945 0.03,2.169 -1.248,4.397 -3.087,5.651 -0.796,0.535 -1.858,1.089 -3.032,1.289 0.361,-0.822 0.539,-1.665 0.592,-2.2 m -6.777,-13.464 c -0.116,0.436 -0.405,1.035 -0.587,1.351 -0.322,-0.017 -0.747,-0.029 -1.09,-0.035 l -0.249,-0.004 v 2.223 c -0.654,-0.195 -2.163,-0.408 -2.844,-0.497 0.001,-5.853 0.003,-12.157 0.003,-12.274 v -0.011 c -0.054,-1.198 -0.516,-1.923 -1.41,-2.211 v -0.405 h 5.677 v 0.405 c -0.923,0.297 -1.41,1.061 -1.41,2.222 l -0.016,9.192 h 0.245 c 0.534,0 1.155,0.016 1.681,0.044 m 0.47,15.94 h -6.686 v -0.397 c 0.961,-0.285 1.422,-1.011 1.447,-2.276 -0.002,-0.091 -0.002,-3.066 -0.002,-6.607 1.364,0.241 2.393,0.645 2.845,0.869 v 6.807 h 3.407 c -0.261,0.728 -0.777,1.386 -1.011,1.604 M -23.444,-46.36 c 0,0.418 -0.246,0.638 -0.713,0.638 h -1.037 v -1.276 h 1.037 c 0.467,0 0.713,0.221 0.713,0.638 m 1.261,-3.608 0.058,-0.086 h -1.073 l -0.016,0.018 c -0.098,0.106 -0.192,0.289 -0.252,0.489 l -0.35,1.177 c -0.101,0.339 -0.214,0.49 -0.616,0.49 h -0.762 v -2.174 h -1.041 v 5.215 h 2.242 c 0.944,0 1.603,-0.577 1.603,-1.402 0,-0.702 -0.461,-1.042 -0.846,-1.204 l -0.071,-0.03 0.069,-0.031 c 0.213,-0.098 0.36,-0.311 0.461,-0.67 l 0.372,-1.303 c 0.058,-0.198 0.124,-0.344 0.222,-0.489 m 5.86,2.494 c 0,1.108 -0.591,1.797 -1.543,1.797 -0.953,0 -1.545,-0.689 -1.545,-1.797 0,-1.109 0.592,-1.797 1.545,-1.797 0.952,0 1.543,0.688 1.543,1.797 m 1.096,0 c 0,-1.571 -1.086,-2.668 -2.639,-2.668 -1.554,0 -2.64,1.097 -2.64,2.668 0,1.58 1.086,2.684 2.64,2.684 1.553,0 2.639,-1.104 2.639,-2.684 m 3.559,0.519 -1.035,2.1 -0.008,0.016 h -1.207 l 1.717,-3.265 v -1.95 h 1.076 v 1.991 l 1.686,3.183 0.021,0.041 h -1.207 z m 6.006,1.278 c 0.653,0 1.081,-0.302 1.308,-0.923 l 0.01,-0.028 0.861,0.364 0.023,0.011 -0.008,0.023 c -0.313,0.942 -1.072,1.44 -2.194,1.44 -1.518,0 -2.579,-1.104 -2.579,-2.684 0,-1.571 1.061,-2.668 2.579,-2.668 0.962,0 1.735,0.466 2.177,1.311 l 0.014,0.026 -0.851,0.364 -0.024,0.01 -0.012,-0.023 c -0.27,-0.558 -0.685,-0.817 -1.304,-0.817 -0.929,0 -1.484,0.671 -1.484,1.797 0,1.125 0.555,1.797 1.484,1.797 m 5.438,-0.049 v -1.198 h 1.757 v -0.886 h -1.757 v -1.357 h 2.397 v -0.887 h -3.462 v 5.215 h 3.462 v -0.887 z"
             style="fill:#FFF;fill-rule:nonzero;stroke:none" />
        </g>
      </g>
    </g>
  </g>
</svg>
