<?xml version="1.0" encoding="UTF-8" standalone="no"?>
<!-- Created with Inkscape (http://www.inkscape.org/) -->

<svg
   xmlns:dc="http://purl.org/dc/elements/1.1/"
   xmlns:cc="http://creativecommons.org/ns#"
   xmlns:rdf="http://www.w3.org/1999/02/22-rdf-syntax-ns#"
   xmlns:svg="http://www.w3.org/2000/svg"
   xmlns="http://www.w3.org/2000/svg"
   xmlns:sodipodi="http://sodipodi.sourceforge.net/DTD/sodipodi-0.dtd"
   xmlns:inkscape="http://www.inkscape.org/namespaces/inkscape"
   width="154.79216"
   height="83.945358"
   viewBox="0 0 40.955425 22.210542"
   version="1.1"
   id="svg51256"
   inkscape:version="0.92.4 (5da689c313, 2019-01-14)"
   sodipodi:docname="bwxt.svg">
  <defs
     id="defs51250" />
  <sodipodi:namedview
     id="base"
     pagecolor="#ffffff"
     bordercolor="#666666"
     borderopacity="1.0"
     inkscape:pageopacity="0.0"
     inkscape:pageshadow="2"
     inkscape:zoom="9.5063369"
     inkscape:cx="76.896076"
     inkscape:cy="41.47268"
     inkscape:document-units="mm"
     inkscape:current-layer="layer1"
     showgrid="false"
     fit-margin-top="0"
     fit-margin-left="0"
     fit-margin-right="0"
     fit-margin-bottom="0"
     units="px"
     inkscape:window-width="1920"
     inkscape:window-height="1001"
     inkscape:window-x="-9"
     inkscape:window-y="-9"
     inkscape:window-maximized="1" />
  <metadata
     id="metadata51253">
    <rdf:RDF>
      <cc:Work
         rdf:about="">
        <dc:format>image/svg+xml</dc:format>
        <dc:type
           rdf:resource="http://purl.org/dc/dcmitype/StillImage" />
        <dc:title></dc:title>
      </cc:Work>
    </rdf:RDF>
  </metadata>
  <g
     inkscape:label="Layer 1"
     inkscape:groupmode="layer"
     id="layer1"
     transform="translate(27.14899,-137.59577)">
    <g
       transform="translate(552.44815,-264.07818)"
       id="g51214">
      <path
         d="m -546.99331,411.15626 c 1.87043,-2.17981 2.66806,-3.90666 2.43875,-5.2772 -0.41522,-2.47439 -3.79694,-4.07282 -8.61518,-4.07282 -5.16396,0 -10.69834,1.80022 -14.82619,4.8193 l 0.0381,0.0529 c 3.63608,-2.62184 7.88493,-4.0647 11.97433,-4.0647 3.92783,0 7.21007,1.38994 8.16787,3.45863 0.5528,1.1938 0.28821,2.48073 -0.76518,3.72181 l -2.60632,2.9277 -2.78342,-3.06035 h -2.75378 l 4.04248,4.29648 -4.4002,4.61857 h 2.83951 l 3.05223,-3.15489 2.92806,3.15489 h 2.86032 l -4.37197,-4.53214 c 0,0 1.83797,-1.81045 2.78059,-2.88819"
         style="fill:#a51a36;fill-opacity:1;fill-rule:nonzero;stroke:none;stroke-width:0.35277778"
         id="path49659"
         inkscape:connector-curvature="0" />
      <path
         inkscape:connector-curvature="0"
         id="path49663"
         style="fill:#393e4b;fill-opacity:1;fill-rule:nonzero;stroke:none;stroke-width:0.35277778"
         d="m -579.19952,422.90355 c 0.084,0.0134 0.19756,0.0169 0.34854,0.0169 0.43286,0 0.84032,-0.12594 0.84032,-0.51787 0,-0.36125 -0.38206,-0.51788 -0.83185,-0.51788 h -0.35701 z m 0,-1.15182 h 0.41169 c 0.41169,0 0.66781,-0.19755 0.66781,-0.44979 0,-0.32385 -0.30233,-0.43956 -0.72249,-0.43956 -0.18485,0 -0.29386,0.0102 -0.35701,0.0236 z m -0.20179,-0.97472 c 0.15981,-0.0307 0.36125,-0.0512 0.5715,-0.0512 0.35278,0 0.58385,0.0614 0.73942,0.19086 0.11748,0.0921 0.17639,0.21484 0.17639,0.375 0,0.23495 -0.20602,0.43286 -0.48718,0.51117 v 0.0102 c 0.23953,0.0444 0.60078,0.21132 0.60078,0.58597 0,0.18768 -0.0843,0.33055 -0.21026,0.43956 -0.18909,0.15346 -0.49565,0.21837 -0.89888,0.21837 -0.21449,0 -0.37817,-0.0138 -0.49177,-0.0205 z" />
      <path
         d="m -576.64996,423.03983 -0.74789,-2.29694 h 0.20602 l 0.4117,1.29505 c 0.0924,0.29633 0.18062,0.57256 0.2353,0.78705 h 0.008 c 0.0459,-0.21449 0.14711,-0.48719 0.26035,-0.78705 l 0.46214,-1.29505 h 0.19333 l 0.42015,1.28482 c 0.0921,0.2794 0.18486,0.56586 0.23107,0.79728 h 0.008 c 0.0628,-0.24871 0.15522,-0.49742 0.25612,-0.79058 l 0.46637,-1.29152 h 0.20567 l -0.84843,2.29694 h -0.19332 l -0.4244,-1.32221 c -0.11324,-0.33726 -0.18062,-0.56233 -0.21837,-0.77717 h -0.008 c -0.0462,0.21131 -0.12594,0.43991 -0.25224,0.77717 l -0.48295,1.32221 z"
         style="fill:#393e4b;fill-opacity:1;fill-rule:nonzero;stroke:none;stroke-width:0.35277778"
         id="path49667"
         inkscape:connector-curvature="0" />
      <path
         inkscape:connector-curvature="0"
         id="path49671"
         style="fill:#393e4b;fill-opacity:1;fill-rule:nonzero;stroke:none;stroke-width:0.35277778"
         d="m -571.97876,423.03983 -0.42862,-0.56586 c -0.17639,-0.21448 -0.27729,-0.34395 -0.37395,-0.47695 h -0.008 c -0.0924,0.133 -0.18063,0.25894 -0.35701,0.48048 l -0.40782,0.56233 h -0.23106 l 0.89923,-1.16205 -0.86149,-1.13489 h 0.22719 l 0.45755,0.61348 c 0.11783,0.15346 0.20603,0.2727 0.28999,0.39512 h 0.008 c 0.0882,-0.13265 0.17639,-0.23848 0.29845,-0.39512 l 0.47449,-0.61348 h 0.2353 l -0.90311,1.11796 0.91158,1.17898 z" />
      <path
         d="m -569.78628,420.87924 h -0.92428 v -0.13617 h 2.05035 v 0.13617 h -0.92463 V 423.04 h -0.20144 z"
         style="fill:#393e4b;fill-opacity:1;fill-rule:nonzero;stroke:none;stroke-width:0.35277778"
         id="path49675"
         inkscape:connector-curvature="0" />
      <path
         inkscape:connector-curvature="0"
         id="path49679"
         style="fill:#393e4b;fill-opacity:1;fill-rule:nonzero;stroke:none;stroke-width:0.35277778"
         d="m -567.22815,422.07544 c 0.004,-0.22825 -0.11324,-0.57256 -0.60078,-0.57256 -0.44521,0 -0.63853,0.32032 -0.67628,0.57256 z m -1.28552,0.12947 c 0,0.5214 0.3489,0.72919 0.7687,0.72919 0.29422,0 0.44556,-0.0476 0.5588,-0.0921 l 0.0504,0.12629 c -0.0755,0.0339 -0.28152,0.10548 -0.6343,0.10548 -0.57961,0 -0.94121,-0.34078 -0.94121,-0.82127 0,-0.54504 0.38665,-0.88582 0.90735,-0.88582 0.65969,0 0.78599,0.50412 0.78599,0.73942 0,0.0441 0,0.0681 -0.008,0.0988 z" />
      <path
         d="m -565.0101,422.96829 c -0.0882,0.0339 -0.29845,0.10548 -0.59231,0.10548 -0.57997,0 -0.96626,-0.34396 -0.96626,-0.83467 0,-0.51823 0.43674,-0.87242 1.03752,-0.87242 0.248,0 0.45367,0.0579 0.52952,0.10195 l -0.0716,0.133 c -0.0963,-0.0441 -0.25188,-0.0953 -0.47448,-0.0953 -0.54222,0 -0.81951,0.33725 -0.81951,0.71896 0,0.42933 0.33197,0.70908 0.79834,0.70908 0.23954,0 0.39476,-0.0547 0.50412,-0.0956 z"
         style="fill:#393e4b;fill-opacity:1;fill-rule:nonzero;stroke:none;stroke-width:0.35277778"
         id="path49683"
         inkscape:connector-curvature="0" />
      <path
         inkscape:connector-curvature="0"
         id="path49687"
         style="fill:#393e4b;fill-opacity:1;fill-rule:nonzero;stroke:none;stroke-width:0.35277778"
         d="m -564.42234,420.62034 h 0.20144 v 1.07703 h 0.008 c 0.0589,-0.0921 0.15558,-0.18097 0.27305,-0.2353 0.11783,-0.0614 0.25647,-0.0956 0.40781,-0.0956 0.18874,0 0.70133,0.0787 0.70133,0.68863 v 0.9846 h -0.20144 v -0.96767 c 0,-0.29633 -0.14288,-0.56233 -0.55457,-0.56233 -0.28575,0 -0.52105,0.16687 -0.60924,0.36795 -0.0208,0.0512 -0.0254,0.0956 -0.0254,0.16369 v 0.99836 h -0.20144 z" />
      <path
         d="m -562.06578,421.79601 c 0,-0.14993 -0.004,-0.26247 -0.0169,-0.39194 h 0.18909 l 0.0127,0.29669 h 0.008 c 0.10936,-0.18415 0.36548,-0.33408 0.69321,-0.33408 0.19297,0 0.70556,0.0783 0.70556,0.6918 v 0.98142 h -0.20144 v -0.96767 c 0,-0.29668 -0.14288,-0.56585 -0.5588,-0.56585 -0.28152,0 -0.52529,0.16369 -0.60501,0.37465 -0.0127,0.0413 -0.0254,0.0956 -0.0254,0.14675 v 1.01212 h -0.20144 z"
         style="fill:#393e4b;fill-opacity:1;fill-rule:nonzero;stroke:none;stroke-width:0.35277778"
         id="path49691"
         inkscape:connector-curvature="0" />
      <path
         inkscape:connector-curvature="0"
         id="path49695"
         style="fill:#393e4b;fill-opacity:1;fill-rule:nonzero;stroke:none;stroke-width:0.35277778"
         d="m -559.67575,422.22538 c 0,0.40887 0.3235,0.71579 0.73519,0.71579 0.42016,0 0.75177,-0.30692 0.75177,-0.72602 0,-0.29986 -0.20567,-0.71226 -0.73907,-0.71226 -0.51682,0 -0.74789,0.37148 -0.74789,0.72249 m 1.68875,-0.0205 c 0,0.60995 -0.51682,0.87242 -0.96626,0.87242 -0.52105,0 -0.92428,-0.33055 -0.92428,-0.84173 0,-0.5588 0.45367,-0.86889 0.95356,-0.86889 0.5588,0 0.93698,0.34078 0.93698,0.8382" />
      <path
         d="m -557.36971,420.62048 h 0.20144 v 2.41935 h -0.20144 z"
         style="fill:#393e4b;fill-opacity:1;fill-rule:nonzero;stroke:none;stroke-width:0.35277778"
         id="path49699"
         inkscape:connector-curvature="0" />
      <path
         inkscape:connector-curvature="0"
         id="path49703"
         style="fill:#393e4b;fill-opacity:1;fill-rule:nonzero;stroke:none;stroke-width:0.35277778"
         d="m -556.34066,422.22538 c 0,0.40887 0.3235,0.71579 0.73519,0.71579 0.42016,0 0.75212,-0.30692 0.75212,-0.72602 0,-0.29986 -0.20602,-0.71226 -0.73942,-0.71226 -0.51682,0 -0.74789,0.37148 -0.74789,0.72249 m 1.68875,-0.0205 c 0,0.60995 -0.51682,0.87242 -0.96626,0.87242 -0.52105,0 -0.92428,-0.33055 -0.92428,-0.84173 0,-0.5588 0.45367,-0.86889 0.95391,-0.86889 0.55845,0 0.93663,0.34078 0.93663,0.8382" />
      <path
         d="m -552.62714,422.03453 c 0,-0.0614 -0.004,-0.11254 -0.025,-0.16016 -0.0843,-0.19756 -0.29421,-0.37148 -0.62618,-0.37148 -0.42827,0 -0.72249,0.28293 -0.72249,0.71579 0,0.36795 0.23954,0.68474 0.71403,0.68474 0.27305,0 0.52105,-0.13264 0.62618,-0.36795 0.0208,-0.0547 0.0335,-0.11606 0.0335,-0.17392 z m 0.20179,0.76694 c 0,0.4191 -0.10936,0.62688 -0.27728,0.75635 -0.18486,0.14323 -0.45826,0.19438 -0.6851,0.19438 -0.23107,0 -0.48718,-0.048 -0.64276,-0.14322 l 0.0716,-0.12947 c 0.14288,0.0748 0.34008,0.13617 0.60078,0.13617 0.4244,0 0.73096,-0.17709 0.73096,-0.66111 v -0.23142 h -0.008 c -0.10477,0.16687 -0.34043,0.3168 -0.70167,0.3168 -0.50835,0 -0.86537,-0.35807 -0.86537,-0.80434 0,-0.56903 0.46214,-0.86889 0.90735,-0.86889 0.39934,0 0.5969,0.1771 0.68086,0.31327 h 0.008 l 0.0123,-0.27587 h 0.18486 c -0.0123,0.12276 -0.0166,0.25223 -0.0166,0.42262 z"
         style="fill:#393e4b;fill-opacity:1;fill-rule:nonzero;stroke:none;stroke-width:0.35277778"
         id="path49707"
         inkscape:connector-curvature="0" />
      <path
         inkscape:connector-curvature="0"
         id="path49711"
         style="fill:#393e4b;fill-opacity:1;fill-rule:nonzero;stroke:none;stroke-width:0.35277778"
         d="m -551.67835,421.40401 h 0.20144 v 1.63583 h -0.20144 z m 0.26071,-0.46672 c 0,0.0748 -0.0631,0.1397 -0.16828,0.1397 -0.0924,0 -0.15522,-0.0649 -0.15522,-0.1397 0,-0.0751 0.0716,-0.14323 0.16369,-0.14323 0.0928,0 0.15981,0.0649 0.15981,0.14323" />
      <path
         d="m -549.38021,422.07546 c 0.004,-0.22825 -0.11324,-0.57256 -0.60078,-0.57256 -0.44521,0 -0.63853,0.32032 -0.67628,0.57256 z m -1.28552,0.12947 c 0,0.5214 0.3489,0.72919 0.7687,0.72919 0.29422,0 0.44556,-0.0476 0.5588,-0.0921 l 0.0504,0.12629 c -0.0755,0.0339 -0.28152,0.10548 -0.6343,0.10548 -0.57961,0 -0.94121,-0.34078 -0.94121,-0.82127 0,-0.54504 0.38665,-0.88582 0.90735,-0.88582 0.65969,0 0.78599,0.50412 0.78599,0.73942 0,0.0441 0,0.0681 -0.008,0.0988 z"
         style="fill:#393e4b;fill-opacity:1;fill-rule:nonzero;stroke:none;stroke-width:0.35277778"
         id="path49715"
         inkscape:connector-curvature="0" />
      <path
         inkscape:connector-curvature="0"
         id="path49719"
         style="fill:#393e4b;fill-opacity:1;fill-rule:nonzero;stroke:none;stroke-width:0.35277778"
         d="m -548.63694,422.82518 c 0.10936,0.0547 0.27305,0.11254 0.45367,0.11254 0.31927,0 0.47061,-0.1397 0.47061,-0.3101 0,-0.18062 -0.13441,-0.27622 -0.42439,-0.37147 -0.33197,-0.10231 -0.51259,-0.24871 -0.51259,-0.44662 0,-0.23495 0.23107,-0.44309 0.62195,-0.44309 0.18485,0 0.34431,0.0444 0.4452,0.10231 l -0.0755,0.133 c -0.0716,-0.0409 -0.20179,-0.0988 -0.40358,-0.0988 -0.25612,0 -0.39052,0.133 -0.39052,0.28293 0,0.17039 0.14287,0.24518 0.41592,0.33725 0.32773,0.10231 0.52105,0.23531 0.52105,0.48401 0,0.2794 -0.26881,0.46673 -0.68086,0.46673 -0.19332,0 -0.37782,-0.0441 -0.51258,-0.11254 z" />
      <path
         d="m -547.15838,423.46928 c 0.067,-0.14323 0.18062,-0.51117 0.21837,-0.72249 l 0.26458,-0.0342 c -0.0755,0.25577 -0.25611,0.64417 -0.32314,0.73978 z"
         style="fill:#393e4b;fill-opacity:1;fill-rule:nonzero;stroke:none;stroke-width:0.35277778"
         id="path49723"
         inkscape:connector-curvature="0" />
      <path
         inkscape:connector-curvature="0"
         id="path49727"
         style="fill:#393e4b;fill-opacity:1;fill-rule:nonzero;stroke:none;stroke-width:0.35277778"
         d="m -544.8648,423.03984 h -0.20143 v -2.29693 h 0.20143 z" />
      <path
         d="m -544.0121,421.79602 c 0,-0.14993 -0.004,-0.26247 -0.0169,-0.39194 h 0.18909 l 0.0127,0.29669 h 0.008 c 0.10936,-0.18415 0.36548,-0.33408 0.69321,-0.33408 0.19297,0 0.70556,0.0783 0.70556,0.6918 v 0.98142 h -0.20144 v -0.96767 c 0,-0.29668 -0.14288,-0.56585 -0.5588,-0.56585 -0.28152,0 -0.52529,0.16369 -0.60501,0.37465 -0.0127,0.0413 -0.0254,0.0956 -0.0254,0.14675 v 1.01212 h -0.20144 z"
         style="fill:#393e4b;fill-opacity:1;fill-rule:nonzero;stroke:none;stroke-width:0.35277778"
         id="path49731"
         inkscape:connector-curvature="0" />
      <path
         inkscape:connector-curvature="0"
         id="path49735"
         style="fill:#393e4b;fill-opacity:1;fill-rule:nonzero;stroke:none;stroke-width:0.35277778"
         d="m -540.26507,422.9683 c -0.0882,0.0339 -0.29845,0.10548 -0.59231,0.10548 -0.57997,0 -0.96626,-0.34396 -0.96626,-0.83467 0,-0.51823 0.43674,-0.87242 1.03752,-0.87242 0.248,0 0.45367,0.0578 0.52952,0.10195 l -0.0716,0.133 c -0.0967,-0.0441 -0.25188,-0.0952 -0.47448,-0.0952 -0.54222,0 -0.81951,0.33725 -0.81951,0.71896 0,0.42933 0.33197,0.70908 0.79834,0.70908 0.23954,0 0.39476,-0.0547 0.50412,-0.0956 z" />
      <path
         d="m -539.83669,422.92392 c 0,-0.0885 0.0713,-0.15346 0.17216,-0.15346 0.10089,0 0.16792,0.0649 0.16792,0.15346 0,0.0818 -0.067,0.15346 -0.17639,0.15346 -0.0967,0 -0.16792,-0.0716 -0.16369,-0.15346"
         style="fill:#393e4b;fill-opacity:1;fill-rule:nonzero;stroke:none;stroke-width:0.35277778"
         id="path49739"
         inkscape:connector-curvature="0" />
      <path
         inkscape:connector-curvature="0"
         id="path49743"
         style="fill:#393e4b;fill-opacity:1;fill-rule:nonzero;stroke:none;stroke-width:0.35277778"
         d="m -555.40509,411.60522 -1.83197,-1.94451 h -0.49777 l -1.42311,6.01909 h -0.0254 l -1.63936,-6.01909 h -2.56681 l -1.639,6.01909 h -0.0254 l -1.42346,-6.01909 h -2.92277 l 2.71957,8.9161 h 2.98626 l 1.57551,-5.80672 h 0.0254 l 1.57585,5.80672 h 2.98944 z" />
      <path
         d="m -545.38789,409.66085 c -0.3623,0.54822 -0.80186,1.12536 -1.32539,1.73567 -0.073,0.0832 -0.1524,0.1718 -0.23424,0.26246 h 1.81998 v 6.91762 h 3.02436 v -6.91762 h 3.32917 v -1.99813 z"
         style="fill:#393e4b;fill-opacity:1;fill-rule:nonzero;stroke:none;stroke-width:0.35277778"
         id="path49747"
         inkscape:connector-curvature="0" />
      <path
         inkscape:connector-curvature="0"
         id="path49751"
         style="fill:#393e4b;fill-opacity:1;fill-rule:nonzero;stroke:none;stroke-width:0.35277778"
         d="m -573.18752,416.65368 h -3.25296 v -1.81046 h 3.25296 c 0.63535,0 1.06751,0.29951 1.06751,0.88654 0,0.58666 -0.43216,0.92392 -1.06751,0.92392 m -0.24165,-5.06977 c 0.6484,0 0.9278,0.3496 0.9278,0.7493 0,0.41205 -0.2794,0.76165 -0.9278,0.76165 h -3.01131 v -1.51095 z m 2.93546,2.09797 v -0.025 c 0.64805,-0.23742 1.11831,-0.96167 1.11831,-1.79811 0,-0.86183 -0.381,-2.1978 -2.57951,-2.1978 h -7.50994 v 8.91575 h 7.25594 c 2.78271,0 3.29106,-1.59843 3.29106,-2.65959 0,-1.26118 -0.62265,-2.02318 -1.57586,-2.2352" />
      <path
         d="m -540.71126,417.89532 h 0.14711 c 0.091,0 0.13688,-0.0328 0.13688,-0.0981 0,-0.0438 -0.0201,-0.0723 -0.0603,-0.0861 -0.0159,-0.005 -0.0416,-0.008 -0.0765,-0.008 h -0.14711 z m 0,0.11642 v 0.28751 h -0.15981 v -0.72002 h 0.31221 c 0.0741,0 0.12771,0.006 0.16087,0.0176 0.0445,0.0159 0.078,0.0437 0.10089,0.084 0.0173,0.0303 0.0258,0.0624 0.0258,0.097 0,0.0487 -0.0159,0.0896 -0.048,0.12311 -0.0191,0.0201 -0.054,0.0385 -0.10443,0.0543 0.0512,0.0155 0.0843,0.0346 0.0998,0.0575 0.0134,0.0215 0.0226,0.0536 0.0268,0.096 l 0.005,0.0706 c 0.002,0.0381 0.006,0.0639 0.009,0.0776 0.002,0.01 0.008,0.024 0.0176,0.0423 h -0.15346 c -0.0116,-0.019 -0.0187,-0.0508 -0.0212,-0.0952 -0.002,-0.0579 -0.01,-0.10019 -0.0212,-0.12665 -0.0155,-0.0356 -0.0455,-0.0564 -0.09,-0.0628 -0.0127,-0.002 -0.0293,-0.003 -0.0497,-0.003 z m 0.13864,-0.61384 c -0.0677,0 -0.13405,0.0138 -0.19932,0.0416 -0.0649,0.0279 -0.12206,0.0667 -0.17145,0.11642 -0.0504,0.0512 -0.0892,0.11042 -0.11677,0.17815 -0.0275,0.0674 -0.0413,0.13794 -0.0413,0.21131 0,0.15205 0.0526,0.28187 0.15804,0.38912 0.0501,0.0505 0.10795,0.0896 0.17322,0.11747 0.066,0.0275 0.13335,0.0416 0.2032,0.0416 0.0702,0 0.13793,-0.0141 0.2032,-0.0423 0.0656,-0.0279 0.12312,-0.0674 0.17286,-0.11854 0.10371,-0.10689 0.15557,-0.2353 0.15557,-0.38558 0,-0.0734 -0.0138,-0.14429 -0.0413,-0.21273 -0.0275,-0.0684 -0.0656,-0.1277 -0.11501,-0.17744 -0.10618,-0.10619 -0.23318,-0.15911 -0.381,-0.15911 m 0.0148,-0.11077 c 0.0833,0 0.16404,0.0166 0.24271,0.0497 0.0787,0.0332 0.14852,0.0804 0.20955,0.14147 0.0614,0.0617 0.10901,0.13299 0.14287,0.21449 0.0335,0.0815 0.0501,0.1658 0.0501,0.25329 0,0.0871 -0.0166,0.17074 -0.0497,0.25153 -0.0335,0.0808 -0.0804,0.15205 -0.14147,0.21343 -0.0617,0.0617 -0.13264,0.10936 -0.21272,0.14288 -0.0801,0.0335 -0.16369,0.0504 -0.25047,0.0504 -0.0864,0 -0.16969,-0.0166 -0.24977,-0.0497 -0.0801,-0.0335 -0.15099,-0.0804 -0.21273,-0.14076 -0.0614,-0.0614 -0.10971,-0.13335 -0.14393,-0.21519 -0.0339,-0.0815 -0.0512,-0.16545 -0.0512,-0.25259 0,-0.12453 0.0325,-0.23989 0.0974,-0.34678 0.0635,-0.10407 0.15134,-0.18486 0.26423,-0.24201 0.0931,-0.0469 0.19473,-0.0702 0.30515,-0.0702"
         style="fill:#393e4b;fill-opacity:1;fill-rule:nonzero;stroke:none;stroke-width:0.35277778"
         id="path49755"
         inkscape:connector-curvature="0" />
    </g>
  </g>
</svg>
