<svg xmlns="http://www.w3.org/2000/svg" width="254.065" height="44.818" viewBox="0 0 254.065 44.818"><defs><style>.a{fill:#e1001e;}</style></defs><g transform="translate(-14.951 -270.182)"><path class="a" d="M152.136,319.949H134.311l6-23.048h3.8l-5,19.221h14.02Z" transform="translate(-70.732 -15.833)"/><path class="a" d="M205.336,319.949h-18.29L193.04,296.9h18.291l-1,3.827H195.824l-1.337,5.143h13.775l-1,3.828H193.491l-1.673,6.423h14.514Z" transform="translate(-101.983 -15.833)"/><g transform="translate(14.951 270.182)"><path class="a" d="M260.745,319.949H249.327c-1.832,0-3.13-.478-3.857-1.42-.755-.976-.887-2.435-.393-4.338l3.034-11.66c.958-3.684,3.407-5.632,7.083-5.632h11.417c1.832,0,3.13.477,3.859,1.418.755.978.887,2.437.392,4.338l-3.033,11.661c-.958,3.684-3.407,5.632-7.084,5.632m-6.417-19.222a2.32,2.32,0,0,0-2.463,1.9l-3.049,11.725a1.549,1.549,0,0,0,.091,1.343,1.567,1.567,0,0,0,1.288.429h11.417a2.32,2.32,0,0,0,2.463-1.9l3.049-11.724a1.213,1.213,0,0,0-1.379-1.772Z" transform="translate(-151.15 -286.014)"/><path class="a" d="M332.062,319.949h-1.909L316.515,302.69l-4.489,17.259h-3.361l6-23.048H317.8l.141.185,12.479,16.263L334.7,296.9h3.362Z" transform="translate(-189.005 -286.015)"/><path class="a" d="M464.545,319.949H460.56l-1.437-10.059h-8.7L447.8,319.949h-3.778l5.994-23.05H464.9c1.833,0,3.132.477,3.859,1.418.755.977.887,2.437.391,4.338l-.414,1.6c-.842,3.234-2.734,5.094-5.632,5.534Zm-13.128-13.888h11.1a2.317,2.317,0,0,0,2.462-1.9l.435-1.665a1.214,1.214,0,0,0-1.38-1.772H452.8Z" transform="translate(-269.22 -286.014)"/><path class="a" d="M520.634,319.948h-16.16l6-23.05H526.5c2.319,0,3.836.505,4.637,1.542.85,1.1.932,2.826.254,5.432l-2.459,9.45c-1.224,4.706-3.627,6.625-8.3,6.625m-11.386-3.828H521.5c2.3,0,3.092-.634,3.694-2.953l2.45-9.419c.346-1.329.359-2.072.042-2.483-.287-.372-.922-.538-2.053-.538H513.252Z" transform="translate(-305.041 -286.014)"/><path class="a" d="M589.806,319.948H578.387c-1.831,0-3.128-.477-3.857-1.419-.755-.977-.887-2.436-.392-4.338l3.032-11.66c.96-3.685,3.408-5.633,7.083-5.633h11.419c1.832,0,3.13.479,3.858,1.419.755.977.887,2.435.393,4.338l-3.034,11.661c-.959,3.684-3.408,5.632-7.084,5.632m-6.418-19.222a2.314,2.314,0,0,0-2.461,1.9l-3.05,11.724a1.55,1.55,0,0,0,.09,1.345,1.567,1.567,0,0,0,1.287.428h11.419a2.32,2.32,0,0,0,2.463-1.9l3.049-11.724a1.547,1.547,0,0,0-.09-1.344,1.566,1.566,0,0,0-1.289-.428Z" transform="translate(-346.151 -286.013)"/><path class="a" d="M399.877,319.785h-4.01l2.621-10.139H383.5l-2.615,10.139h-4.009l4.5-17.445c.986-3.794,3.406-5.716,7.191-5.716h11.417c1.867,0,3.2.491,3.947,1.461h0c.779,1.007.915,2.5.411,4.434ZM384.54,305.594h14.994l.849-3.286a1.537,1.537,0,0,0-.073-1.245,1.558,1.558,0,0,0-1.2-.385H387.695a2.168,2.168,0,0,0-2.353,1.813Z" transform="translate(-229.425 -285.852)"/><path class="a" d="M68.276,338.783c-13.759-3.678-19.738-9.367-19.738-9.367s5.895,9.952,15.15,13.877l.519.217.151.053v0c.173.066.346.132.52.192a.674.674,0,0,0,.759-.2l3.029-3.667a.683.683,0,0,0-.39-1.1" transform="translate(-34.855 -305.284)"/><path class="a" d="M72.972,316.579a19.141,19.141,0,0,0-2.248-.157c-5.57,0-20.328,2.665-20.328,2.665l22.487,3.187.032,0,.031-.013a.369.369,0,0,0,.1-.062.645.645,0,0,0,.253-.505c.069-.671.284-2.986.37-4.239a.839.839,0,0,0-.7-.88" transform="translate(-35.955 -297.584)"/><path class="a" d="M50.394,294.2c7.011-6.425,19.082-8.7,20.316-8.956a.681.681,0,0,0,.449-1.037c-.442-.706-2.125-3-2.774-3.806a.7.7,0,0,0-.759-.222l-.094.033-.052.019v-.015l-.716.27C58.038,283.81,52.7,290.9,50.394,294.2" transform="translate(-35.955 -276.086)"/><path class="a" d="M41.574,288.3a24.482,24.482,0,0,1,.689-3.164c2.334-6.808,7.44-11.886,9.526-13.751a.689.689,0,0,0,.18-.79.679.679,0,0,0-.689-.4l-4.416.364a1.416,1.416,0,0,0-.452.094.4.4,0,0,0-.194.141l-.732.944c-.213.275-.425.574-.608.86a.967.967,0,0,0-.082.127l-.37.608A27.467,27.467,0,0,0,41.574,288.3" transform="translate(-30.669 -270.182)"/><path class="a" d="M27.81,299.787a24.313,24.313,0,0,1-2.521-9.487l-.017-.549a.759.759,0,0,0-.532-.707.751.751,0,0,0-.833.3,23.681,23.681,0,0,0-1.847,3.985.744.744,0,0,0,.012.576c1.109,2.6,5.737,5.88,5.737,5.88" transform="translate(-19.133 -281.341)"/><path class="a" d="M20.438,334.3a.72.72,0,0,0-.132.541,22.946,22.946,0,0,0,1.025,4.3.725.725,0,0,0,.771.452c.44-.009.613-.667.769-1.116a53.582,53.582,0,0,1,3.814-9.067s-4.374,2.356-6.247,4.887" transform="translate(-18.118 -305.285)"/><path class="a" d="M50.834,347.21l-.323-.343-.031-.034A30.144,30.144,0,0,1,41.622,330.3s-1.753,12.767,4.895,20.177a.583.583,0,0,0,.211.107h0l.205.04,5.027-.809.116-.034a.656.656,0,0,0,.342-.345.683.683,0,0,0-.148-.77c-.316-.306-.811-.788-1.434-1.46" transform="translate(-30.632 -305.81)"/><path class="a" d="M23.047,318.008l-2.27-.49a11.058,11.058,0,0,1-3.993-1.634,2.459,2.459,0,0,1-.2-.187.733.733,0,0,0-.711-.216l-.031,0a.758.758,0,0,0-.527.548,21.047,21.047,0,0,0-.352,3.565.645.645,0,0,0,.333.418l.223.066.134-.018c1.067-.154,4.049-1.074,5.283-1.463Z" transform="translate(-14.951 -297.013)"/></g></g></svg>